Mamma mia - Musical - Songs of Abba [Eac Flac Cue] [TNTvillage]



Benny Andersson - Bjorn Ulvaeus

MAMMA MIA!

THE SMASH HIT MUSICAL

BASED ON THE SONGS OF ABBA

SPECIAL EDITION - ORIGINAL CAST RECORDING


Titolo: MAMMA MIA!
Anno: 2004                  
Genere: Musical
Etichetta: Polydor

Mamma Mia! is a musical with a book by British playwright Catherine Johnson, based on the songs of ABBA, composed by Benny Andersson and Björn Ulvaeus. It is an example of a jukebox musical, and is notable for popularising the genre. The plot is adapted from the 1968 film Buona Sera, Mrs. Campbell starring Gina Lollobrigida.
Although the title of the musical is taken from the group's 1975 chart-topper "Mamma Mia", the musical's plot has nothing to do with the story of the group itself.
Björn Ulvaeus and Benny Andersson, who composed the original music for ABBA, have been involved in the development of the show from the beginning. Anni-Frid Lyngstad has been involved financially in the production, while Agnetha Fältskog has not, though she was present at the Swedish premiere and final show.
The musical includes such hits as "Super Trouper", "Dancing Queen", "Knowing Me, Knowing You", "Thank You for the Music", "Money, Money, Money", "The Winner Takes It All", "Voulez Vous", "I Have A Dream" and "SOS". It had been seen by over ten million people worldwide as of July 2003. Estimates of 2007, is that 30 million have now seen Mamma Mia!. Since its opening in 1999, the production has grossed US$2.0 billion in earnings. 
A film version of Mamma Mia!, starring Pierce Brosnan, Meryl Streep , Colin Firth, and Amanda Seyfried and Julie Walters began filming in June 2007 and is scheduled for a summer 2008 release.


MUSICAL NUMBERS

ACT 1
01. OVERTURE/PROLOGUE
02. HONEY, HONEY 
03. MONEY, MONEY, MONEY
04. THANK YOU FOR THE MUSIC
05. MAMMA MIA
06. CHIQUITITA
07. DANCING QUEEN
08. LAY ALL YOUR LOVE ON ME
09. SUPER TROUPER
10. GIMME! GIMME! GIMME!
11. THE NAME OF THE GAME
12. VOULEZ-VOUS

ACT 2
13. ENTR'ACTE
14. UNDER ATTACK
15. ONE OF US
16. S.O.S.
17. DOES YOUR MOTHER KNOW
18. KNOWING ME, KNOWING YOU
19. OUR LAST SUMMER
20. SLIPPING THROUGH MY FINGERS
21. THE WINNER TAKES IT ALL
22. TAKE A CHANCE ON ME
23. I DO, I DO, I DO, I DO, I DO
24. I HAVE A DREAM


FINALE BONUS TRACKS

25. MAMMA MIA
26. DANCING QUEEN
27. WATERLOO


Exact Audio Copy V0.99 prebeta 3 from 28. July 2007

EAC extraction logfile from 4. July 2008, 10:50

Benny Andersson & Bjorn Ulvaeus / Mamma Mia! - Special Edition

Used drive  : TSSTcorpCDDVDW TS-L632H   Adapter: 1  ID: 0

Read mode               : Secure
Utilize accurate stream : Yes
Defeat audio cache      : Yes
Make use of C2 pointers : No

Read offset correction                      : 6
Overread into Lead-In and Lead-Out          : No
Fill up missing offset samples with silence : Yes
Delete leading and trailing silent blocks   : No
Null samples used in CRC calculations       : Yes
Used interface                              : Native Win32 interface for Win NT & 2000

Used output format              : User Defined Encoder
Selected bitrate                : 1024 kBit/s
Quality                         : High
Add ID3 tag                     : No
Command line compressor         : C:\Program Files\Exact Audio Copy\FLAC\FLAC.EXE
Additional command line options :  -8 -V -T "ARTIST=%a" -T "TITLE=%t" -T "ALBUM=%g" -T "DATE=%y" -T "TRACKNUMBER=%n" -T "GENRE=%m" -T "COMMENT=%e" %s -o %d


TOC of the extracted CD

     Track |   Start  |  Length  | Start sector | End sector 
    ---------------------------------------------------------
        1  |  0:00.00 |  2:56.05 |         0    |    13204   
        2  |  2:56.05 |  2:02.57 |     13205    |    22411   
        3  |  4:58.62 |  3:01.03 |     22412    |    35989   
        4  |  7:59.65 |  3:04.02 |     35990    |    49791   
        5  | 11:03.67 |  3:20.73 |     49792    |    64864   
        6  | 14:24.65 |  2:27.52 |     64865    |    75941   
        7  | 16:52.42 |  3:44.03 |     75942    |    92744   
        8  | 20:36.45 |  3:06.05 |     92745    |   106699   
        9  | 23:42.50 |  3:57.00 |    106700    |   124474   
       10  | 27:39.50 |  3:34.52 |    124475    |   140576   
       11  | 31:14.27 |  2:15.63 |    140577    |   150764   
       12  | 33:30.15 |  3:29.40 |    150765    |   166479   
       13  | 36:59.55 |  2:18.02 |    166480    |   176831   
       14  | 39:17.57 |  3:11.00 |    176832    |   191156   
       15  | 42:28.57 |  2:20.48 |    191157    |   201704   
       16  | 44:49.30 |  2:44.42 |    201705    |   214046   
       17  | 47:33.72 |  3:21.70 |    214047    |   229191   
       18  | 50:55.67 |  2:42.43 |    229192    |   241384   
       19  | 53:38.35 |  2:42.62 |    241385    |   253596   
       20  | 56:21.22 |  3:36.13 |    253597    |   269809   
       21  | 59:57.35 |  4:08.67 |    269810    |   288476   
       22  | 64:06.27 |  3:33.43 |    288477    |   304494   
       23  | 67:39.70 |  2:29.15 |    304495    |   315684   
       24  | 70:09.10 |  2:57.62 |    315685    |   329021   
       25  | 73:06.72 |  1:24.08 |    329022    |   335329   
       26  | 74:31.05 |  2:40.37 |    335330    |   347366   
       27  | 77:11.42 |  2:21.53 |    347367    |   357994   


Range status and errors

Selected range

     Filename C:Benny Andersson & Bjorn Ulvaeus - Mamma Mia! - Special Edition.wav

     Peak level 99.2 %
     Range quality 100.0 %
     Test CRC 6CFC5771
     Copy CRC 6CFC5771
     Copy OK

No errors occurred

 
AccurateRip summary
 
Track  1  accurately ripped (confidence 4)  [29E67F12]
Track  2  accurately ripped (confidence 4)  [1B5F0FCD]
Track  3  accurately ripped (confidence 4)  [5EEFB6Bb]
Track  4  accurately ripped (confidence 4)  [60054757]
Track  5  accurately ripped (confidence 4)  [F191CC5F]
Track  6  accurately ripped (confidence 4)  [DF6631E9]
Track  7  accurately ripped (confidence 4)  [595DFAB1]
Track  8  accurately ripped (confidence 4)  [D921E5B7]
Track  9  accurately ripped (confidence 4)  [61EE3C1E]
Track 10  accurately ripped (confidence 4)  [AA5A4BF4]
Track 11  accurately ripped (confidence 4)  [0C4A8EF1]
Track 12  accurately ripped (confidence 4)  [7E46F50E]
Track 13  accurately ripped (confidence 4)  [4751656C]
Track 14  accurately ripped (confidence 4)  [2C833DD5]
Track 15  accurately ripped (confidence 4)  [ECA8B3E0]
Track 16  accurately ripped (confidence 4)  [20557245]
Track 17  accurately ripped (confidence 4)  [D7101825]
Track 18  accurately ripped (confidence 4)  [1F5388C7]
Track 19  accurately ripped (confidence 4)  [DF334033]
Track 20  accurately ripped (confidence 4)  [B0EA030A]
Track 21  accurately ripped (confidence 4)  [E3DF1B06]
Track 22  accurately ripped (confidence 4)  [F8A83EA8]
Track 23  accurately ripped (confidence 4)  [6D7733C2]
Track 24  accurately ripped (confidence 4)  [C1659D66]
Track 25  accurately ripped (confidence 4)  [3E1CBBBb]
Track 26  accurately ripped (confidence 4)  [F756A4E2]
Track 27  accurately ripped (confidence 4)  [EC053BCF]
 
All tracks accurately ripped

End of status report


Visit http://www.tntvillage.scambioetico.org/